<svg width="23" height="24" viewBox="0 0 23 24" fill="none" xmlns="http://www.w3.org/2000/svg">
<path fill-rule="evenodd" clip-rule="evenodd" d="M4.69832 3.16153C4.69721 3.15808 4.69614 3.15462 4.6951 3.15114L4.69832 3.16153ZM5.20168 4.73193L6.9303 10.1241C7.05284 10.5063 7.40353 10.765 7.79915 10.765H15.2009C15.5968 10.765 15.9476 10.506 16.0699 10.1234L17.7931 4.73402L19.5221 10.1419L20.6409 13.5079L11.5 20.2585L2.3946 13.5341L5.20168 4.73193ZM18.144 3.40298L18.1473 3.3999C18.1462 3.40093 18.1451 3.40195 18.144 3.40298ZM4.32436 2.02714C4.56495 1.8046 4.8786 1.68124 5.20398 1.68124C5.53011 1.68124 5.84446 1.80517 6.08526 2.02868C6.09161 2.03457 6.09787 2.04055 6.10405 2.04662C6.25992 2.19972 6.37552 2.39002 6.44036 2.60009L8.46253 8.90786H14.537L16.5615 2.57593C16.5666 2.55977 16.5722 2.54376 16.5783 2.52792C16.6511 2.33651 16.7669 2.16504 16.9164 2.02714C17.157 1.8046 17.4707 1.68124 17.796 1.68124C18.1222 1.68124 18.4365 1.80517 18.6773 2.02868C18.6837 2.03457 18.6899 2.04055 18.6961 2.04662C18.8521 2.19983 18.9678 2.39029 19.0326 2.60054L21.2586 9.56287L22.4175 13.0493C22.4193 13.0548 22.4211 13.0603 22.4228 13.0659C22.425 13.0728 22.4271 13.0798 22.4291 13.0868C22.5302 13.4397 22.5167 13.8163 22.3905 14.1607C22.2677 14.4958 22.0446 14.7831 21.753 14.9823L12.0372 22.1576C11.7169 22.3941 11.2831 22.3941 10.9628 22.1576L1.2309 14.9704L1.22673 14.9673C0.940944 14.7538 0.728959 14.4538 0.621102 14.1104C0.513613 13.7682 0.51503 13.4002 0.625099 13.0589L3.96939 2.57593C3.97455 2.55977 3.98016 2.54376 3.98619 2.52792C4.05903 2.33651 4.17483 2.16504 4.32436 2.02714ZM16.9164 2.02714C16.917 2.02662 16.9175 2.02611 16.9181 2.0256L17.531 2.71429L16.9148 2.02868C16.9153 2.02816 16.9159 2.02765 16.9164 2.02714Z" fill="black"/>
</svg>
