<svg width="61" height="61" viewBox="0 0 61 61" fill="none" xmlns="http://www.w3.org/2000/svg">
<path d="M30.5001 2.54171C23.1635 2.46716 16.0974 5.30859 10.8549 10.4415C5.6123 15.5745 2.62222 22.5789 2.54175 29.9155C2.57002 35.7134 4.43515 41.3533 7.86924 46.0249C11.3033 50.6966 16.1297 54.1596 21.6551 55.9167C23.053 56.1709 23.5613 55.3321 23.5613 54.595C23.5613 53.858 23.5613 52.2313 23.5613 49.9438C15.7838 51.5959 14.1317 46.2838 14.1317 46.2838C13.614 44.6162 12.5133 43.1907 11.0309 42.268C8.48925 40.5905 11.2342 40.6159 11.2342 40.6159C12.1128 40.7333 12.9533 41.0482 13.6928 41.5368C14.4323 42.0254 15.0516 42.6751 15.5042 43.4371C16.293 44.8049 17.5872 45.8082 19.1084 46.2313C20.6295 46.6544 22.2559 46.4633 23.6376 45.6992C23.7797 44.3073 24.41 43.0107 25.4167 42.0392C19.2151 41.353 12.7084 39.0146 12.7084 28.5175C12.653 25.7794 13.6647 23.127 15.5297 21.1213C14.6803 18.7704 14.7806 16.1811 15.8092 13.903C15.8092 13.903 18.173 13.1659 23.4342 16.6988C28.0141 15.4784 32.8336 15.4784 37.4134 16.6988C42.7509 13.1659 45.0384 13.903 45.0384 13.903C46.0671 16.1811 46.1674 18.7704 45.318 21.1213C47.2263 23.0902 48.2929 25.7248 48.2917 28.4667C48.2917 38.9892 41.7342 41.3021 35.5834 41.9884C36.2569 42.6423 36.7772 43.4373 37.1068 44.3162C37.4364 45.1951 37.5671 46.1362 37.4897 47.0717V54.5696C37.4897 54.5696 37.998 56.1709 39.3959 55.8913C44.9056 54.1233 49.7157 50.6594 53.1392 45.9944C56.5627 41.3294 58.4244 35.7018 58.4584 29.9155C58.3779 22.5789 55.3879 15.5745 50.1453 10.4415C44.9027 5.30859 37.8367 2.46716 30.5001 2.54171Z" fill="black"/>
</svg>
