<svg width="112" height="112" viewBox="0 0 112 112" fill="none" xmlns="http://www.w3.org/2000/svg">
<path d="M92.9013 102.191H85.144C82.6801 102.191 80.3172 101.212 78.5749 99.4702C76.8327 97.7279 75.8539 95.365 75.8539 92.9011V67.9571C75.8954 66.9789 75.5997 66.016 75.0163 65.2297C74.4329 64.4433 73.5971 63.8811 72.6488 63.6372C72.0971 63.5532 71.5338 63.5886 70.997 63.7408C70.4601 63.893 69.9621 64.1587 69.5366 64.5198C69.0987 64.8914 68.7472 65.3541 68.5065 65.8756C68.2658 66.3971 68.1418 66.9648 68.1431 67.5391V92.9011C68.1431 95.365 67.1643 97.7279 65.4221 99.4702C63.6799 101.212 61.3169 102.191 58.853 102.191H51.0958C48.6319 102.191 46.2689 101.212 44.5267 99.4702C42.7844 97.7279 41.8057 95.365 41.8057 92.9011V67.5391C41.8057 63.5741 42.5866 59.6479 44.104 55.9848C45.6213 52.3216 47.8453 48.9932 50.6489 46.1895C53.4526 43.3859 56.781 41.1619 60.4442 39.6445C64.1074 38.1272 68.0335 37.3462 71.9985 37.3462C75.9635 37.3462 79.8897 38.1272 83.5528 39.6445C87.216 41.1619 90.5444 43.3859 93.3481 46.1895C96.1517 48.9932 98.3757 52.3216 99.8931 55.9848C101.41 59.6479 102.191 63.5741 102.191 67.5391V92.9011C102.191 95.365 101.213 97.7279 99.4704 99.4702C97.7281 101.212 95.3651 102.191 92.9013 102.191ZM71.9985 54.3007C72.7255 54.2548 73.4547 54.2548 74.1817 54.3007C77.3002 54.9006 80.108 56.5793 82.1125 59.0425C84.117 61.5057 85.1903 64.5959 85.144 67.7713V92.9011H92.9013V67.5391C92.9013 61.9953 90.699 56.6786 86.779 52.7586C82.859 48.8386 77.5423 46.6363 71.9985 46.6363C66.4548 46.6363 61.1381 48.8386 57.218 52.7586C53.298 56.6786 51.0958 61.9953 51.0958 67.5391V92.9011H58.853V67.5391C58.8529 64.0441 60.2349 60.6908 62.6975 58.2108C65.1602 55.7308 68.5036 54.3252 71.9985 54.3007Z" fill="white"/>
<path d="M27.8703 102.191H18.5801C16.1163 102.191 13.7533 101.212 12.011 99.4702C10.2688 97.7279 9.29004 95.365 9.29004 92.9011V46.4505C9.29004 43.9866 10.2688 41.6237 12.011 39.8814C13.7533 38.1392 16.1163 37.1604 18.5801 37.1604H27.8703C30.3341 37.1604 32.6971 38.1392 34.4394 39.8814C36.1816 41.6237 37.1604 43.9866 37.1604 46.4505V92.9011C37.1604 95.365 36.1816 97.7279 34.4394 99.4702C32.6971 101.212 30.3341 102.191 27.8703 102.191ZM18.5801 46.4505V92.9011H27.8703V46.4505H18.5801Z" fill="white"/>
<path d="M23.2252 32.5154C20.4691 32.5154 17.7749 31.6981 15.4832 30.1669C13.1916 28.6357 11.4055 26.4593 10.3508 23.913C9.29608 21.3667 9.02011 18.5648 9.55781 15.8616C10.0955 13.1584 11.4227 10.6754 13.3716 8.72657C15.3204 6.7777 17.8034 5.45051 20.5066 4.91282C23.2097 4.37513 26.0116 4.65109 28.558 5.70581C31.1043 6.76053 33.2807 8.54663 34.8119 10.8383C36.3431 13.1299 37.1604 15.8241 37.1604 18.5802C37.1604 22.2761 35.6922 25.8205 33.0789 28.4339C30.4655 31.0472 26.921 32.5154 23.2252 32.5154ZM23.2252 13.9352C22.3065 13.9352 21.4084 14.2076 20.6446 14.718C19.8807 15.2284 19.2853 15.9539 18.9337 16.8026C18.5822 17.6514 18.4902 18.5854 18.6694 19.4864C18.8486 20.3875 19.291 21.2151 19.9407 21.8648C20.5903 22.5144 21.418 22.9568 22.319 23.136C23.2201 23.3152 24.154 23.2233 25.0028 22.8717C25.8516 22.5201 26.577 21.9247 27.0874 21.1609C27.5978 20.397 27.8703 19.4989 27.8703 18.5802C27.8703 17.3483 27.3809 16.1668 26.5098 15.2957C25.6386 14.4246 24.4572 13.9352 23.2252 13.9352Z" fill="white"/>
</svg>
