<svg width="113" height="113" viewBox="0 0 113 113" fill="none" xmlns="http://www.w3.org/2000/svg">
<path d="M40.4669 93.5382H40.0953C32.6092 93.4726 25.2313 91.7432 18.4958 88.4751C17.2569 87.8931 16.2368 86.9298 15.5848 85.7262C14.9328 84.5226 14.6833 83.1419 14.8727 81.7862C15.0787 80.4213 15.7106 79.1564 16.6783 78.1721C17.6459 77.1878 18.8998 76.5343 20.261 76.305C24.4351 75.7481 28.4506 74.3411 32.0594 72.1709C25.794 67.2724 20.9705 60.77 18.1002 53.3529C15.2298 45.9359 14.4196 37.8804 15.7553 30.0403C15.9364 28.7985 16.4704 27.6348 17.2939 26.6878C18.1174 25.7408 19.1956 25.0503 20.4003 24.6985C21.5723 24.3304 22.8266 24.3147 24.0075 24.6532C25.1884 24.9918 26.2438 25.6698 27.0427 26.603C29.7555 30.1601 33.1644 33.1272 37.0617 35.3234C40.9589 37.5196 45.2628 38.8988 49.7106 39.3769C49.9231 33.9043 52.2748 28.7337 56.2601 24.9772C58.2501 23.0717 60.5994 21.5812 63.1711 20.5928C65.7428 19.6043 68.4856 19.1375 71.2395 19.2196C73.9935 19.3018 76.7035 19.9312 79.2117 21.0712C81.72 22.2112 83.9763 23.839 85.8491 25.8597C86.3371 26.2911 86.9433 26.566 87.5893 26.6489C88.2353 26.7317 88.8913 26.6186 89.4723 26.3243C90.5798 25.8019 91.813 25.6053 93.0281 25.7573C94.2431 25.9093 95.3899 26.4037 96.3346 27.1829C97.2793 27.962 97.9829 28.9937 98.3635 30.1576C98.744 31.3215 98.7857 32.5696 98.4837 33.7563C97.4123 38.1697 95.3823 42.293 92.538 45.8335C91.9111 59.0475 86.0854 71.4778 76.3311 80.4141C66.5769 89.3504 53.6852 94.068 40.4669 93.5382ZM40.4669 84.2481H40.8385C46.2392 84.4338 51.623 83.5457 56.6779 81.6351C61.7327 79.7245 66.358 76.8295 70.2856 73.118C74.2132 69.4064 77.3649 64.9522 79.5581 60.0134C81.7513 55.0746 82.9423 49.7496 83.0621 44.3471C83.1388 42.8665 83.7494 41.4638 84.7807 40.3988C85.9137 38.9646 86.8799 37.4062 87.6607 35.7537C85.9873 35.7569 84.3321 35.4069 82.8033 34.7265C81.2744 34.0461 79.9064 33.0507 78.7886 31.8054C77.7138 30.7396 76.4371 29.899 75.0333 29.3327C73.6295 28.7664 72.1269 28.4858 70.6133 28.5074C69.0847 28.4679 67.5632 28.7307 66.1364 29.2807C64.7095 29.8307 63.4053 30.6571 62.2987 31.7125C60.8057 33.1293 59.7109 34.9133 59.124 36.886C58.5371 38.8588 58.4785 40.9511 58.9543 42.9535L60.162 48.2489L54.7273 48.6205C49.1583 49.0746 43.5571 48.3128 38.3117 46.3879C33.0663 44.463 28.3019 41.4209 24.3486 37.4724C24.1791 43.5871 25.7087 49.6291 28.7674 54.9265C31.8262 60.2239 36.2942 64.5693 41.6747 67.4794L46.0875 69.9878L43.1611 74.1683C39.9964 78.3188 35.6602 81.4253 30.7123 83.0868C33.8864 83.8824 37.1484 84.2725 40.4205 84.2481H40.4669Z" fill="white"/>
</svg>
