<svg width="24" height="24" viewBox="0 0 24 24" fill="none" xmlns="http://www.w3.org/2000/svg">
<path fill-rule="evenodd" clip-rule="evenodd" d="M14.5256 2.35019C15.5744 1.94989 16.7208 1.88134 17.8099 2.15383C18.6759 2.37052 19.4724 2.79456 20.1327 3.38511C20.9449 3.08659 21.7152 2.68258 22.4237 2.18284C22.7643 1.94257 23.2183 1.93879 23.5628 2.17336C23.9074 2.40792 24.0703 2.83162 23.9717 3.23662C23.6292 4.64314 22.9426 5.93957 21.977 7.01097C21.9918 7.17237 21.9996 7.33444 22.0001 7.49669L22.0001 7.5C22.0001 13.5999 19.0632 18.075 14.845 20.3202C10.651 22.5525 5.29097 22.5278 0.51446 19.8742C0.109649 19.6493 -0.0877967 19.1759 0.0372519 18.73C0.162301 18.2841 0.577127 17.9824 1.03985 18.0008C2.72666 18.0679 4.39647 17.7325 5.91484 17.033C4.41169 16.1054 3.32952 15.0042 2.57716 13.8163C1.57353 12.2316 1.19466 10.5529 1.12613 9.04541C1.05781 7.54228 1.29658 6.1889 1.54758 5.21837C1.67368 4.73078 1.80452 4.3335 1.90538 4.05453C1.95587 3.91489 1.99901 3.80441 2.03054 3.72658C2.04631 3.68765 2.0592 3.65684 2.06866 3.63459L2.08023 3.60767L2.08319 3.60091C2.09023 3.58473 2.09773 3.56868 2.10568 3.55279L3.0001 4L3.81846 3.42529C4.734 4.72897 5.95775 5.78599 7.38071 6.50221C8.51256 7.07191 9.7425 7.41192 10.9998 7.50641C10.9924 6.39675 11.3221 5.31066 11.9457 4.39206C12.5762 3.46325 13.4768 2.7505 14.5256 2.35019ZM3.40475 6.04361C3.22106 6.84497 3.07437 7.86124 3.12407 8.95459C3.18055 10.1971 3.48918 11.5184 4.2668 12.7462C5.04039 13.9677 6.31614 15.1573 8.40624 16.0862C8.73804 16.2337 8.96384 16.5494 8.99614 16.9111C9.02844 17.2727 8.86216 17.6235 8.56173 17.8274C7.4508 18.5815 6.2343 19.1488 4.9602 19.5157C8.13037 20.3234 11.3071 19.9376 13.9053 18.5548C17.4366 16.6752 19.9996 12.9008 20.0001 7.50167C19.9993 7.28557 19.9785 7.07001 19.9379 6.85775C19.8752 6.52989 19.9803 6.19238 20.2179 5.95799C20.4407 5.73831 20.647 5.50416 20.8358 5.2575C20.6093 5.34106 20.3801 5.41778 20.1484 5.48753C19.7718 5.60094 19.3637 5.48303 19.1055 5.18624C18.6377 4.64832 18.016 4.26706 17.3244 4.09402C16.6328 3.92098 15.9048 3.96451 15.2388 4.21872C14.5727 4.47292 14.0009 4.92555 13.6005 5.51538C13.2001 6.1052 12.9905 6.80377 13 7.5166L13.0002 7.53H13.0001V8.53C13.0001 9.07219 12.568 9.51561 12.026 9.52966C10.1038 9.57951 8.19909 9.15319 6.48152 8.28868C5.33595 7.71208 4.29735 6.95248 3.40475 6.04361Z" fill="black"/>
</svg>
