<svg width="112" height="112" viewBox="0 0 112 112" fill="none" xmlns="http://www.w3.org/2000/svg">
<path d="M60.3851 9.2901C49.4013 8.23528 38.4007 11.125 29.3534 17.4418C20.306 23.7586 13.8028 33.0898 11.0084 43.7645C8.21398 54.4391 9.31088 65.7599 14.1026 75.6995C18.8944 85.6391 27.0681 93.5483 37.1599 98.0106C43.0044 100.654 49.3268 102.076 55.7401 102.191C65.9498 102.192 75.8754 98.8291 83.982 92.6224C84.9604 91.8763 85.6028 90.7726 85.7682 89.5534C85.9337 88.3342 85.6087 87.0991 84.8646 86.1193C84.4948 85.6282 84.0312 85.2154 83.5007 84.9048C82.9702 84.5942 82.3834 84.392 81.7741 84.3099C81.1649 84.2278 80.5455 84.2675 79.9517 84.4266C79.3579 84.5857 78.8016 84.861 78.315 85.2367C73.4975 88.8757 67.8659 91.286 61.9075 92.2592C55.949 93.2325 49.8431 92.7393 44.1182 90.8223C38.3932 88.9053 33.2215 85.6223 29.0505 81.2573C24.8795 76.8923 21.8349 71.5767 20.18 65.7705C18.5251 59.9644 18.3099 53.8424 19.5529 47.9343C20.7958 42.0262 23.4596 36.51 27.3137 31.8628C31.1678 27.2156 36.0961 23.5775 41.6723 21.2631C47.2485 18.9487 53.3047 18.0279 59.3168 18.5802C68.6473 19.6601 77.2459 24.1619 83.4493 31.2148C89.6528 38.2677 93.0203 47.3705 92.9005 56.7626V59.9212C92.8951 60.9883 92.6748 62.0434 92.2527 63.0235C91.8306 64.0036 91.2153 64.8885 90.4436 65.6256C89.6718 66.3626 88.7595 66.9366 87.7611 67.3132C86.7626 67.6899 85.6985 67.8615 84.6323 67.8178C82.5059 67.5843 80.547 66.5534 79.1506 64.9329C77.7542 63.3123 77.024 61.2227 77.1073 59.0851V39.0184C77.1073 37.7865 76.6179 36.605 75.7468 35.7339C74.8757 34.8628 73.6942 34.3734 72.4623 34.3734C71.3281 34.3638 70.2297 34.7694 69.374 35.5138C68.5183 36.2583 67.9646 37.29 67.8172 38.4146C63.4943 34.3436 57.7763 32.0829 51.8382 32.0973C47.8025 32.1276 43.8417 33.1904 40.333 35.1845C36.8242 37.1787 33.8843 40.0378 31.7933 43.4897C29.7022 46.9416 28.5295 50.8712 28.3869 54.9045C28.2443 58.9379 29.1365 62.9405 30.9786 66.5315C32.8206 70.1224 35.5513 73.182 38.9104 75.419C42.2695 77.656 46.1454 78.9959 50.1689 79.3111C54.1924 79.6263 58.2296 78.9063 61.8961 77.2197C65.5626 75.5331 68.7364 72.9361 71.1152 69.6758C72.4635 71.7616 74.2594 73.5208 76.3726 74.8257C78.4858 76.1306 80.863 76.9485 83.3318 77.2198C85.8005 77.4912 88.2987 77.2092 90.6448 76.3944C92.9909 75.5796 95.1261 74.2524 96.8952 72.5093C98.5979 70.8894 99.9473 68.9349 100.859 66.7687C101.77 64.6024 102.223 62.2711 102.191 59.9212V56.7626C102.295 45.0894 98.0853 33.7888 90.3703 25.028C82.6554 16.2672 71.9777 10.663 60.3851 9.2901ZM51.9311 70.0939C49.0923 70.0939 46.3173 69.2521 43.9569 67.6749C41.5965 66.0978 39.7568 63.8561 38.6705 61.2334C37.5841 58.6107 37.2999 55.7247 37.8537 52.9405C38.4075 50.1562 39.7745 47.5987 41.7819 45.5914C43.7892 43.584 46.3467 42.217 49.131 41.6632C51.9152 41.1094 54.8012 41.3936 57.4239 42.48C60.0466 43.5664 62.2882 45.406 63.8654 47.7664C65.4425 50.1268 66.2843 52.9018 66.2843 55.7406C66.2721 59.5436 64.756 63.1873 62.0669 65.8764C59.3778 68.5655 55.7341 70.0816 51.9311 70.0939Z" fill="white"/>
</svg>
