<svg width="42" height="42" viewBox="0 0 42 42" fill="none" xmlns="http://www.w3.org/2000/svg">
<path fill-rule="evenodd" clip-rule="evenodd" d="M27.4103 6.60351C24.3079 5.22119 20.8419 4.87874 17.529 5.62724C14.2161 6.37573 11.234 8.17507 9.02729 10.7569C6.8206 13.3387 5.50761 16.5647 5.28414 19.9537C5.06067 23.3427 5.9387 26.7132 7.78727 29.5624C9.63583 32.4116 12.3559 34.587 15.5418 35.764C18.7277 36.941 22.2087 37.0566 25.4657 36.0936C28.7227 35.1307 31.5811 33.1406 33.6147 30.4204C35.6483 27.7001 36.7481 24.3954 36.75 20.999V19.39C36.75 18.4235 37.5335 17.64 38.5 17.64C39.4665 17.64 40.25 18.4235 40.25 19.39V21C40.2476 25.1511 38.9035 29.1913 36.418 32.516C33.9325 35.8408 30.4388 38.273 26.4581 39.45C22.4773 40.627 18.2227 40.4857 14.3289 39.0471C10.435 37.6085 7.11046 34.9497 4.8511 31.4674C2.59174 27.985 1.5186 23.8655 1.79173 19.7234C2.06486 15.5813 3.66962 11.6384 6.36669 8.48287C9.06375 5.32731 12.7086 3.12812 16.7577 2.21329C20.8067 1.29846 25.043 1.71701 28.8348 3.40651C29.7176 3.79987 30.1144 4.83443 29.721 5.71726C29.3276 6.60009 28.2931 6.99687 27.4103 6.60351Z" fill="black"/>
<path fill-rule="evenodd" clip-rule="evenodd" d="M39.7368 5.76194C40.4206 6.44502 40.4211 7.55306 39.7381 8.23682L22.2381 25.7543C21.9099 26.0828 21.4647 26.2674 21.0004 26.2675C20.5362 26.2676 20.0909 26.0832 19.7626 25.7549L14.5126 20.5049C13.8291 19.8215 13.8291 18.7135 14.5126 18.0301C15.196 17.3466 16.304 17.3466 16.9874 18.0301L20.9994 22.042L37.2619 5.76318C37.945 5.07942 39.0531 5.07887 39.7368 5.76194Z" fill="black"/>
</svg>
