<svg width="57" height="57" viewBox="0 0 57 57" fill="none" xmlns="http://www.w3.org/2000/svg">
<path d="M28.5 2.37506C21.6445 2.30539 15.0418 4.9605 10.143 9.75685C5.24421 14.5532 2.45019 21.0983 2.375 27.9538C2.40142 33.3716 4.14424 38.6416 7.35315 43.0069C10.5621 47.3722 15.0719 50.6082 20.235 52.2501C21.5413 52.4876 22.0163 51.7038 22.0163 51.0151C22.0163 50.3263 22.0163 48.8063 22.0163 46.6688C14.7488 48.2126 13.205 43.2488 13.205 43.2488C12.7212 41.6906 11.6927 40.3585 10.3075 39.4963C7.9325 37.9288 10.4975 37.9526 10.4975 37.9526C11.3184 38.0623 12.1038 38.3565 12.7949 38.8131C13.4859 39.2696 14.0646 39.8767 14.4875 40.5888C15.2245 41.8668 16.4339 42.8044 17.8553 43.1997C19.2767 43.5951 20.7964 43.4165 22.0875 42.7026C22.2203 41.402 22.8092 40.1904 23.75 39.2826C17.955 38.6413 11.875 36.4563 11.875 26.6476C11.8232 24.0889 12.7686 21.6104 14.5113 19.7363C13.7176 17.5396 13.8113 15.12 14.7725 12.9913C14.7725 12.9913 16.9813 12.3026 21.8975 15.6038C26.177 14.4634 30.6805 14.4634 34.96 15.6038C39.9475 12.3026 42.085 12.9913 42.085 12.9913C43.0462 15.12 43.1399 17.5396 42.3462 19.7363C44.1294 21.5761 45.1261 24.0379 45.125 26.6001C45.125 36.4326 38.9975 38.5938 33.25 39.2351C33.8793 39.8461 34.3655 40.5889 34.6735 41.4102C34.9814 42.2315 35.1036 43.1109 35.0312 43.9851V50.9913C35.0312 50.9913 35.5062 52.4876 36.8125 52.2263C41.9609 50.5743 46.4556 47.3375 49.6546 42.9784C52.8536 38.6193 54.5932 33.3607 54.625 27.9538C54.5498 21.0983 51.7558 14.5532 46.857 9.75685C41.9582 4.9605 35.3555 2.30539 28.5 2.37506Z" fill="white"/>
</svg>
