<svg width="39" height="39" viewBox="0 0 39 39" fill="none" xmlns="http://www.w3.org/2000/svg">
<path fill-rule="evenodd" clip-rule="evenodd" d="M1.625 4.875C2.52246 4.875 3.25 5.60254 3.25 6.5V14.625H11.375C12.2725 14.625 13 15.3525 13 16.25C13 17.1475 12.2725 17.875 11.375 17.875H1.625C0.727537 17.875 0 17.1475 0 16.25V6.5C0 5.60254 0.727537 4.875 1.625 4.875Z" fill="black"/>
<path fill-rule="evenodd" clip-rule="evenodd" d="M26 22.75C26 21.8525 26.7275 21.125 27.625 21.125H37.375C38.2725 21.125 39 21.8525 39 22.75V32.5C39 33.3975 38.2725 34.125 37.375 34.125C36.4775 34.125 35.75 33.3975 35.75 32.5V24.375H27.625C26.7275 24.375 26 23.6475 26 22.75Z" fill="black"/>
<path fill-rule="evenodd" clip-rule="evenodd" d="M14.9938 3.89369C17.6307 3.13096 20.4178 3.04865 23.0951 3.65442C25.7725 4.2602 28.2527 5.53432 30.3044 7.35791C32.3561 9.18149 33.9124 11.4951 34.8282 14.0828C35.1276 14.9289 34.6844 15.8575 33.8383 16.1569C32.9923 16.4562 32.0637 16.0131 31.7643 15.167C31.0318 13.0968 29.7867 11.2459 28.1453 9.78708C26.504 8.32822 24.5198 7.30892 22.3779 6.8243C20.2361 6.33967 18.0064 6.40553 15.8968 7.01571C13.7873 7.62589 11.8668 8.76051 10.3143 10.3137C10.3023 10.3257 10.2901 10.3375 10.2778 10.3492L2.73777 17.4342C2.08374 18.0487 1.05534 18.0167 0.440781 17.3627C-0.17378 16.7087 -0.141786 15.6803 0.512243 15.0657L8.03416 7.9977C9.97143 6.06569 12.3653 4.65399 14.9938 3.89369ZM38.5592 21.6372C39.1738 22.2912 39.1418 23.3196 38.4878 23.9342L30.9658 31.0022C29.0286 32.9342 26.6347 34.3459 24.0062 35.1062C21.3693 35.8689 18.5822 35.9512 15.9049 35.3455C13.2275 34.7397 10.7473 33.4656 8.6956 31.642C6.64389 29.8184 5.08756 27.5048 4.17184 24.917C3.87245 24.071 4.31561 23.1424 5.16166 22.843C6.00771 22.5436 6.93628 22.9868 7.23567 23.8328C7.96824 25.903 9.2133 27.7539 10.8547 29.2128C12.496 30.6717 14.4802 31.691 16.6221 32.1756C18.7639 32.6602 20.9936 32.5944 23.1032 31.9842C25.2127 31.374 27.1333 30.2394 28.6857 28.6862C28.6929 28.679 28.7002 28.6718 28.7075 28.6647C28.7124 28.66 28.7173 28.6554 28.7222 28.6507L36.2622 21.5657C36.9163 20.9512 37.9447 20.9831 38.5592 21.6372Z" fill="black"/>
</svg>
